<svg width="54" height="54" viewBox="0 0 54 54" fill="none" xmlns="http://www.w3.org/2000/svg">
<circle cx="27" cy="27" r="26" stroke="#646464" stroke-width="2"/>
<g clip-path="url(#clip0_46_550)">
<path d="M31.536 39V29.712H34.6467L35.112 26.1013H31.536V23.7973C31.536 22.752 31.8267 22.0387 33.3253 22.0387H35.2373V18.8093C34.3117 18.7111 33.3815 18.6635 32.4507 18.6667C29.6947 18.6667 27.808 20.3493 27.808 23.44V26.1013H24.6907V29.712H27.808V39H16.3333C15.9797 39 15.6406 38.8595 15.3905 38.6095C15.1405 38.3594 15 38.0203 15 37.6667V16.3333C15 15.9797 15.1405 15.6406 15.3905 15.3905C15.6406 15.1405 15.9797 15 16.3333 15H37.6667C38.0203 15 38.3594 15.1405 38.6095 15.3905C38.8595 15.6406 39 15.9797 39 16.3333V37.6667C39 38.0203 38.8595 38.3594 38.6095 38.6095C38.3594 38.8595 38.0203 39 37.6667 39H31.536Z" fill="#646464"/>
</g>
<defs>
<clipPath id="clip0_46_550">
<rect width="32" height="32" fill="white" transform="translate(11 11)"/>
</clipPath>
</defs>
</svg>
