<svg width="54" height="54" viewBox="0 0 54 54" fill="none" xmlns="http://www.w3.org/2000/svg">
<circle cx="27" cy="27" r="26" stroke="#646464" stroke-width="2"/>
<g clip-path="url(#clip0_46_555)">
<path d="M40.5493 18.5412C39.5314 18.9915 38.452 19.2872 37.3467 19.4186C38.5117 18.7218 39.3836 17.6253 39.8 16.3332C38.7067 16.9839 37.508 17.4399 36.2587 17.6866C35.4195 16.7887 34.3072 16.1932 33.0946 15.9927C31.8821 15.7922 30.6373 15.9979 29.5537 16.5778C28.4701 17.1578 27.6085 18.0795 27.1028 19.1996C26.5971 20.3198 26.4757 21.5756 26.7573 22.7719C24.5402 22.6608 22.3711 22.0846 20.3911 21.0808C18.411 20.077 16.6642 18.668 15.264 16.9452C14.7684 17.7965 14.5079 18.7642 14.5093 19.7492C14.5093 21.6826 15.4933 23.3906 16.9893 24.3906C16.104 24.3627 15.2382 24.1236 14.464 23.6932V23.7626C14.4643 25.0502 14.9098 26.2981 15.7251 27.2946C16.5404 28.2912 17.6753 28.9752 18.9373 29.2306C18.1155 29.4533 17.2538 29.4861 16.4173 29.3266C16.7732 30.4349 17.4667 31.4042 18.4008 32.0987C19.3349 32.7933 20.4628 33.1783 21.6267 33.1999C20.47 34.1083 19.1456 34.7799 17.7292 35.1761C16.3128 35.5724 14.8322 35.6856 13.372 35.5092C15.9209 37.1485 18.8881 38.0187 21.9187 38.0159C32.176 38.0159 37.7853 29.5186 37.7853 22.1492C37.7853 21.9092 37.7787 21.6666 37.768 21.4292C38.8598 20.6401 39.8021 19.6626 40.5507 18.5426L40.5493 18.5412Z" fill="#646464"/>
</g>
<defs>
<clipPath id="clip0_46_555">
<rect width="32" height="32" fill="white" transform="translate(11 11)"/>
</clipPath>
</defs>
</svg>
