<svg width="29" height="24" viewBox="0 0 29 24" fill="none" xmlns="http://www.w3.org/2000/svg">
<path d="M12.692 3.388L7.58 12.892L4.628 13.684C4.964 13.06 5.348 12.532 5.78 12.1C6.26 11.668 6.764 11.452 7.292 11.452C8.54 11.452 9.668 11.98 10.676 13.036C11.732 14.092 12.26 15.412 12.26 16.996C12.26 18.676 11.684 20.14 10.532 21.388C9.38 22.588 7.964 23.188 6.284 23.188C4.652 23.188 3.236 22.588 2.036 21.388C0.836 20.188 0.236 18.724 0.236 16.996C0.236 16.324 0.38 15.532 0.668 14.62C0.956 13.66 1.484 12.46 2.252 11.02L7.796 0.795996L12.692 3.388ZM28.172 3.388L23.06 12.892L20.108 13.684C20.444 13.06 20.828 12.532 21.26 12.1C21.692 11.668 22.196 11.452 22.772 11.452C24.02 11.452 25.148 11.98 26.156 13.036C27.212 14.092 27.74 15.412 27.74 16.996C27.74 18.676 27.14 20.14 25.94 21.388C24.788 22.588 23.372 23.188 21.692 23.188C20.108 23.188 18.716 22.588 17.516 21.388C16.316 20.188 15.716 18.724 15.716 16.996C15.716 16.324 15.86 15.532 16.148 14.62C16.436 13.66 16.964 12.46 17.732 11.02L23.276 0.795996L28.172 3.388Z" fill="black"/>
</svg>
