<svg width="54" height="54" viewBox="0 0 54 54" fill="none" xmlns="http://www.w3.org/2000/svg">
<circle cx="27" cy="27" r="26" stroke="#646464" stroke-width="2"/>
<g clip-path="url(#clip0_46_560)">
<path d="M27 13.6665C30.6227 13.6665 31.0747 13.6798 32.496 13.7465C33.916 13.8132 34.8827 14.0358 35.7334 14.3665C36.6134 14.7052 37.3547 15.1638 38.096 15.9038C38.774 16.5704 39.2986 17.3766 39.6334 18.2665C39.9627 19.1158 40.1867 20.0838 40.2534 21.5038C40.316 22.9252 40.3334 23.3772 40.3334 26.9998C40.3334 30.6225 40.32 31.0745 40.2534 32.4958C40.1867 33.9158 39.9627 34.8825 39.6334 35.7332C39.2996 36.6235 38.7748 37.43 38.096 38.0958C37.4293 38.7736 36.6231 39.2982 35.7334 39.6332C34.884 39.9625 33.916 40.1865 32.496 40.2532C31.0747 40.3158 30.6227 40.3332 27 40.3332C23.3774 40.3332 22.9254 40.3198 21.504 40.2532C20.084 40.1865 19.1174 39.9625 18.2667 39.6332C17.3765 39.2991 16.5701 38.7744 15.904 38.0958C15.2259 37.4294 14.7013 36.6231 14.3667 35.7332C14.036 34.8838 13.8134 33.9158 13.7467 32.4958C13.684 31.0745 13.6667 30.6225 13.6667 26.9998C13.6667 23.3772 13.68 22.9252 13.7467 21.5038C13.8134 20.0825 14.036 19.1172 14.3667 18.2665C14.7003 17.3761 15.2251 16.5696 15.904 15.9038C16.5702 15.2255 17.3766 14.7008 18.2667 14.3665C19.1174 14.0358 20.0827 13.8132 21.504 13.7465C22.9254 13.6838 23.3774 13.6665 27 13.6665ZM27 20.3332C25.2319 20.3332 23.5362 21.0355 22.286 22.2858C21.0357 23.536 20.3334 25.2317 20.3334 26.9998C20.3334 28.7679 21.0357 30.4636 22.286 31.7139C23.5362 32.9641 25.2319 33.6665 27 33.6665C28.7681 33.6665 30.4638 32.9641 31.7141 31.7139C32.9643 30.4636 33.6667 28.7679 33.6667 26.9998C33.6667 25.2317 32.9643 23.536 31.7141 22.2858C30.4638 21.0355 28.7681 20.3332 27 20.3332ZM35.6667 19.9998C35.6667 19.5578 35.4911 19.1339 35.1785 18.8213C34.866 18.5088 34.442 18.3332 34 18.3332C33.558 18.3332 33.1341 18.5088 32.8215 18.8213C32.5089 19.1339 32.3334 19.5578 32.3334 19.9998C32.3334 20.4419 32.5089 20.8658 32.8215 21.1783C33.1341 21.4909 33.558 21.6665 34 21.6665C34.442 21.6665 34.866 21.4909 35.1785 21.1783C35.4911 20.8658 35.6667 20.4419 35.6667 19.9998ZM27 22.9998C28.0609 22.9998 29.0783 23.4213 29.8284 24.1714C30.5786 24.9216 31 25.939 31 26.9998C31 28.0607 30.5786 29.0781 29.8284 29.8283C29.0783 30.5784 28.0609 30.9998 27 30.9998C25.9392 30.9998 24.9217 30.5784 24.1716 29.8283C23.4214 29.0781 23 28.0607 23 26.9998C23 25.939 23.4214 24.9216 24.1716 24.1714C24.9217 23.4213 25.9392 22.9998 27 22.9998Z" fill="#646464"/>
</g>
<defs>
<clipPath id="clip0_46_560">
<rect width="32" height="32" fill="white" transform="translate(11 11)"/>
</clipPath>
</defs>
</svg>
