<svg width="29" height="23" viewBox="0 0 29 23" fill="none" xmlns="http://www.w3.org/2000/svg">
<path d="M16.292 3.108L21.332 12.54L24.284 13.404C23.996 12.732 23.636 12.18 23.204 11.748C22.772 11.364 22.268 11.172 21.692 11.172C20.444 11.172 19.292 11.676 18.236 12.684C17.18 13.74 16.652 15.06 16.652 16.644C16.652 18.372 17.228 19.836 18.38 21.036C19.58 22.236 21.02 22.836 22.7 22.836C24.284 22.836 25.676 22.236 26.876 21.036C28.076 19.836 28.676 18.372 28.676 16.644C28.676 15.972 28.532 15.156 28.244 14.196C28.004 13.284 27.5 12.108 26.732 10.668L21.116 0.444001L16.292 3.108ZM0.812 3.108L5.852 12.54L8.876 13.404C8.54 12.732 8.156 12.18 7.724 11.748C7.292 11.364 6.788 11.172 6.212 11.172C4.964 11.172 3.812 11.676 2.756 12.684C1.748 13.74 1.244 15.06 1.244 16.644C1.244 18.372 1.82 19.836 2.972 21.036C4.124 22.236 5.54 22.836 7.22 22.836C8.852 22.836 10.268 22.236 11.468 21.036C12.668 19.836 13.268 18.372 13.268 16.644C13.268 15.972 13.124 15.156 12.836 14.196C12.548 13.284 12.02 12.108 11.252 10.668L5.708 0.444001L0.812 3.108Z" fill="black"/>
</svg>
