<svg width="336" height="117" viewBox="0 0 336 117" fill="none" xmlns="http://www.w3.org/2000/svg">
<g clip-path="url(#clip0_87_84)">
<path d="M102.375 92.625H112.125V102.375H4.87488V92.625H14.6249V19.5C14.6249 18.2071 15.1385 16.9671 16.0527 16.0529C16.967 15.1386 18.2069 14.625 19.4999 14.625H68.2499C69.5428 14.625 70.7828 15.1386 71.697 16.0529C72.6113 16.9671 73.1249 18.2071 73.1249 19.5V92.625H92.6249V53.625H82.8749V43.875H97.4999C98.7928 43.875 100.033 44.3886 100.947 45.3029C101.861 46.2171 102.375 47.4571 102.375 48.75V92.625ZM24.3749 24.375V92.625H63.3749V24.375H24.3749ZM34.1249 53.625H53.6249V63.375H34.1249V53.625ZM34.1249 34.125H53.6249V43.875H34.1249V34.125Z" fill="white"/>
</g>
<path d="M149.116 81.085C145.879 81.085 142.993 80.383 140.458 78.979C137.962 77.536 135.993 75.5665 134.55 73.0705C133.107 70.5745 132.385 67.747 132.385 64.588V39.3745H140.341V64.822C140.341 66.655 140.712 68.2345 141.453 69.5605C142.233 70.8865 143.286 71.92 144.612 72.661C145.977 73.363 147.478 73.714 149.116 73.714C150.793 73.714 152.275 73.363 153.562 72.661C154.849 71.92 155.863 70.8865 156.604 69.5605C157.384 68.2345 157.774 66.6745 157.774 64.8805V39.3745H165.789V64.6465C165.789 67.8055 165.067 70.633 163.624 73.129C162.181 75.586 160.212 77.536 157.716 78.979C155.259 80.383 152.392 81.085 149.116 81.085ZM188.504 81.085C186.476 81.085 184.643 80.6755 183.005 79.8565C181.367 78.9985 180.06 77.848 179.085 76.405C178.11 74.962 177.584 73.3045 177.506 71.4325V61.429C177.584 59.557 178.11 57.8995 179.085 56.4565C180.099 54.9745 181.406 53.8045 183.005 52.9465C184.643 52.0885 186.476 51.6595 188.504 51.6595C191.117 51.6595 193.457 52.303 195.524 53.59C197.591 54.877 199.209 56.632 200.379 58.855C201.588 61.078 202.193 63.5935 202.193 66.4015C202.193 69.1705 201.588 71.6665 200.379 73.8895C199.209 76.1125 197.591 77.8675 195.524 79.1545C193.457 80.4415 191.117 81.085 188.504 81.085ZM187.158 74.0065C188.562 74.0065 189.81 73.6945 190.902 73.0705C191.994 72.4075 192.833 71.5105 193.418 70.3795C194.042 69.2095 194.354 67.864 194.354 66.343C194.354 64.861 194.042 63.5545 193.418 62.4235C192.833 61.2535 191.994 60.3565 190.902 59.7325C189.81 59.0695 188.562 58.738 187.158 58.738C185.793 58.738 184.565 59.0695 183.473 59.7325C182.381 60.3565 181.523 61.2535 180.899 62.4235C180.314 63.5545 180.021 64.861 180.021 66.343C180.021 67.864 180.314 69.2095 180.899 70.3795C181.523 71.5105 182.361 72.4075 183.414 73.0705C184.506 73.6945 185.754 74.0065 187.158 74.0065ZM172.826 92.317V52.2445H180.489V59.674L179.202 66.5185L180.431 73.363V92.317H172.826ZM210.685 80.5V40.486H218.349V80.5H210.685ZM204.075 58.972V52.2445H224.959V58.972H204.075ZM241.863 81.085C239.016 81.085 236.442 80.4415 234.141 79.1545C231.879 77.8285 230.066 76.054 228.701 73.831C227.375 71.569 226.712 69.0535 226.712 66.2845C226.712 63.5155 227.375 61.039 228.701 58.855C230.027 56.632 231.84 54.877 234.141 53.59C236.442 52.264 238.997 51.601 241.805 51.601C244.691 51.601 247.265 52.264 249.527 53.59C251.828 54.877 253.641 56.632 254.967 58.855C256.293 61.039 256.956 63.5155 256.956 66.2845C256.956 69.0535 256.293 71.569 254.967 73.831C253.641 76.054 251.828 77.8285 249.527 79.1545C247.265 80.4415 244.71 81.085 241.863 81.085ZM241.805 73.948C243.248 73.948 244.515 73.636 245.607 73.012C246.738 72.349 247.596 71.452 248.181 70.321C248.805 69.151 249.117 67.825 249.117 66.343C249.117 64.861 248.805 63.5545 248.181 62.4235C247.557 61.2925 246.699 60.415 245.607 59.791C244.515 59.128 243.248 58.7965 241.805 58.7965C240.401 58.7965 239.153 59.128 238.061 59.791C236.969 60.415 236.111 61.2925 235.487 62.4235C234.863 63.5545 234.551 64.861 234.551 66.343C234.551 67.825 234.863 69.151 235.487 70.321C236.111 71.452 236.969 72.349 238.061 73.012C239.153 73.636 240.401 73.948 241.805 73.948ZM268.808 80.5L258.219 52.2445H265.941L272.844 72.778L270.504 72.8365L277.583 52.2445H283.14L290.219 72.8365L287.879 72.778L294.782 52.2445H302.504L291.974 80.5H286.416L279.279 60.961H281.444L274.307 80.5H268.808ZM325.234 80.5V64.2955C325.234 62.6185 324.708 61.2535 323.655 60.2005C322.602 59.1475 321.237 58.621 319.56 58.621C318.468 58.621 317.493 58.855 316.635 59.323C315.777 59.791 315.094 60.454 314.587 61.312C314.119 62.17 313.885 63.1645 313.885 64.2955L310.902 62.7745C310.902 60.5515 311.37 58.621 312.306 56.983C313.281 55.306 314.607 53.9995 316.284 53.0635C318 52.1275 319.93 51.6595 322.075 51.6595C324.142 51.6595 325.995 52.186 327.633 53.239C329.271 54.253 330.558 55.5985 331.494 57.2755C332.43 58.9135 332.898 60.688 332.898 62.599V80.5H325.234ZM306.222 80.5V52.2445H313.885V80.5H306.222Z" fill="white"/>
<defs>
<clipPath id="clip0_87_84">
<rect width="117" height="117" fill="white"/>
</clipPath>
</defs>
</svg>
